<svg xmlns="http://www.w3.org/2000/svg" xmlns:xlink="http://www.w3.org/1999/xlink" xmlns:fi="http://pattern.flaticon.com/" x="0" y="0" width="1200" height="600" viewBox="0 0 1200 600"><rect x="0px" y="0px" width="100%" height="100%" opacity="0" fill="#ffffff"/><defs><path d="m497 93.245h-21.729l-25.397-50.793c-2.67-5.34-8.255-8.588-14.214-8.271-98.229 5.233-176.677 34.219-179.66 35.007-5.688-1.501-78.412-29.613-179.66-35.006-5.951-.317-11.544 2.931-14.214 8.271l-25.397 50.792h-21.729c-8.284 0-15 6.716-15 15v300c0 8.284 6.716 15 15 15h26.132c58.784 0 116.895 9.04 172.851 26.866 6.923 16.899 22.853 27.728 42.017 27.728s35.094-10.829 42.017-27.728c55.957-17.826 114.067-26.866 172.851-26.866h26.132c8.284 0 15-6.716 15-15v-300c0-8.284-6.716-15-15-15zm-412.475-28.508c93.739 6.464 159.102 32.426 166.73 34.493 3.08 1.027 6.41 1.027 9.49 0 7.425-2.012 73.273-28.049 166.73-34.493l14.601 29.202c-54.604 2.614-108.461 12.659-160.488 29.968-.012.004-.024.008-.036.012-5.623 1.873-9.215 6.149-10.261 11.385-1.849 9.243-9.111 12.536-15.292 12.536s-13.443-3.293-15.292-12.536c-1.042-5.222-4.645-9.517-10.268-11.388-.009-.003-.017-.006-.026-.009-52.027-17.309-105.886-27.355-160.491-29.969zm-54.525 328.508v-270h11.132c57.741 0 114.829 8.715 169.868 25.918v268.645c-55.166-16.307-112.211-24.563-169.868-24.563zm226 54.595c-5.905 0-12.785-3.02-15-11.349v-261.033c9.402 3.114 20.216 3.24 30 0v261.033c-2.215 8.329-9.095 11.349-15 11.349zm226-54.595h-11.132c-57.657 0-114.703 8.256-169.868 24.563v-268.644c55.039-17.204 112.127-25.918 169.868-25.918h11.132z" transform="matrix(0.1171875 0 0 0.1171875 19 229.99999982833856)" id="L1_117" fill="#ffffff"/><g transform="matrix(0.1171875 0 0 0.1171875 160 263.99999978542326)" id="L1_118"><path d="m170.394 110.393c-5.858 5.858-5.858 15.355 0 21.213 5.857 5.857 15.355 5.858 21.213 0l15-15c14.12-14.12 14.12-37.094 0-51.213-2.422-2.422-2.422-6.364 0-8.787l15-15c5.858-5.858 5.858-15.355 0-21.213-5.857-5.858-15.355-5.858-21.213 0l-15 15c-14.12 14.12-14.12 37.094 0 51.213 2.422 2.422 2.422 6.364 0 8.787z" fill="#ffffff"/><path d="m230.394 110.393c-5.858 5.858-5.858 15.355 0 21.213 5.857 5.857 15.355 5.858 21.213 0l15-15c14.12-14.12 14.12-37.094 0-51.213-2.422-2.422-2.422-6.364 0-8.787l15-15c5.858-5.858 5.858-15.355 0-21.213-5.857-5.858-15.355-5.858-21.213 0l-15 15c-14.12 14.12-14.12 37.094 0 51.213 2.422 2.422 2.422 6.364 0 8.787z" fill="#ffffff"/><path d="m290.394 110.393c-5.858 5.858-5.858 15.355 0 21.213 5.857 5.857 15.355 5.858 21.213 0l15-15c14.12-14.12 14.12-37.094 0-51.213-2.423-2.422-2.423-6.364 0-8.787l15-15c5.858-5.858 5.858-15.355 0-21.213-5.857-5.858-15.355-5.858-21.213 0l-15 15c-14.12 14.12-14.12 37.094 0 51.213 2.423 2.422 2.423 6.364 0 8.787z" fill="#ffffff"/><path d="m346 406h-210c-8.284 0-15 6.716-15 15s6.716 15 15 15h210c8.284 0 15-6.716 15-15s-6.716-15-15-15z" fill="#ffffff"/><path d="m475.678 376h21.322c8.284 0 15-6.716 15-15s-6.716-15-15-15h-138.048c17.559-15.011 28.139-35.411 31.147-60h30.901c33.084 0 60-26.916 60-60s-26.916-60-60-60c-12.789 0-263.757 0-285 0-8.284 0-15 6.716-15 15v90c0 31.353 11.031 57.033 32.048 75h-78.048c-41.355 0-75 33.645-75 75s33.645 75 75 75h422c8.284 0 15-6.716 15-15s-6.716-15-15-15h-21.322c-11.685-28.738-11.685-61.262 0-90zm-24.678-150c0 16.542-13.458 30-30 30h-30v-60h30c16.542 0 30 13.458 30 30zm-300 45v-75h210v75c0 57.322-47.73 75-105 75-57.285 0-105-17.688-105-75zm-76 195c-24.813 0-45-20.187-45-45s20.187-45 45-45h368.827c-9.191 29.214-9.19 60.786 0 90z" fill="#ffffff"/></g><g transform="matrix(0.13082297146320343 0 0 0.13082297146320343 259.509319292922 -12.476485956935335)" id="L1_119"><path d="m346 406.001h-210c-8.284 0-15 6.716-15 15s6.716 15 15 15h210c8.284 0 15-6.716 15-15s-6.716-15-15-15z" fill="#ffffff"/><path d="m475.678 376.001h21.322c8.284 0 15-6.716 15-15s-6.716-15-15-15h-226v-25.605c51.187-4.59 95.603-32.446 122.589-73.25 4.57-6.909 2.674-16.216-4.235-20.786s-16.217-2.674-20.786 4.236c-2.228 3.368-4.627 6.641-7.165 9.812l-21.371-21.371c13.56-18.055 20.898-39.907 20.898-62.889 0-86.644-99.272-135.46-167.879-84.092l-21.38-21.381c3.171-2.538 6.444-4.937 9.813-7.165 6.909-4.57 8.806-13.877 4.235-20.786s-13.877-8.806-20.786-4.235c-45.162 29.873-73.933 80.556-73.933 137.66 0 86.393 65.917 156.79 150 164.258v25.593h-166c-41.355 0-75 33.645-75 75s33.645 75 75 75h422c8.284 0 15-6.716 15-15s-6.716-15-15-15h-21.322c-11.685-28.737-11.685-61.262 0-89.999zm-145.406-210h-44.272c-8.284 0-15 6.716-15 15s6.716 15 15 15h33.472c-40.288 63.963-138.542 34.413-138.542-39.851 0-6.908.949-13.667 2.746-20.148h42.324c8.284 0 15-6.716 15-15s-6.716-15-15-15h-25.835c14.855-16.479 35.232-24.816 55.765-24.816 44.783-.002 80.299 39.143 74.342 84.815zm-209.272-9.852c0-31.042 10.37-60.449 29.453-84.264l21.375 21.375c-13.56 18.055-20.898 39.907-20.898 62.889 0 58.283 47.193 104.951 105 104.951 22.159 0 44.313-6.958 62.879-20.859l21.386 21.386c-23.815 19.082-53.223 29.452-84.265 29.452-74.697 0-134.93-60.216-134.93-134.93zm-46 309.852c-24.813 0-45-20.187-45-45s20.187-45 45-45h368.827c-9.191 29.214-9.19 60.786 0 90z" fill="#ffffff"/></g><g transform="matrix(0.1171875 0 0 0.1171875 206 134)" id="L1_120"><path d="m436 30c8.284 0 15-6.716 15-15s-6.716-15-15-15h-330c-24.813 0-45 20.187-45 45v422c0 24.813 20.187 45 45 45h330c8.284 0 15-6.716 15-15v-422c0-8.284-6.716-15-15-15h-15v-30zm-15 452h-315c-8.271 0-15-6.729-15-15v-379.57c4.693 1.664 9.743 2.57 15 2.57h315zm-30-422h-285c-8.271 0-15-6.729-15-15s6.729-15 15-15h285z" fill="#ffffff"/><path d="m301 222.51v-40.51h15c8.284 0 15-6.716 15-15s-6.716-15-15-15c-15.128 0-104.89 0-120 0-8.284 0-15 6.716-15 15s6.716 15 15 15h15v40.51c-36.38 17.299-60 54.093-60 94.49 0 57.897 47.103 105 105 105s105-47.103 105-105c0-40.505-23.716-77.237-60-94.49zm-69.976 24.135c5.98-2.126 9.976-7.786 9.976-14.134v-50.511h30v50.511c0 6.347 3.995 12.008 9.976 14.134 25.063 8.91 43.229 30.197 48.47 55.355h-9.905c-19.627 0-39.279-4.639-56.833-13.416-20.569-10.285-43.469-15.964-66.464-16.528 8.672-11.395 20.625-20.379 34.78-25.411zm24.976 145.355c-41.355 0-75-33.645-75-75 0-5.105.538-10.124 1.554-15h9.905c19.627 0 39.279 4.639 56.833 13.416 21.697 10.849 45.989 16.584 70.249 16.584h9.95c-6.969 34.192-37.271 60-73.491 60z" fill="#ffffff"/></g><g transform="matrix(0.1171875 0 0 0.1171875 23 61)" id="L1_121"><path d="m173.467 283.672 63.64 63.64c29.241 29.242 76.823 29.244 106.066 0l21.213-21.213c5.858-5.858 5.858-15.355 0-21.213l-42.427-42.426c-5.857-5.858-15.355-5.858-21.213 0-5.848 5.848-15.363 5.848-21.213 0l-21.214-21.213c-5.849-5.849-5.849-15.365 0-21.214 5.858-5.858 5.858-15.355 0-21.213l-42.426-42.426c-5.856-5.858-15.354-5.857-21.213 0l-21.214 21.214c-29.241 29.241-29.241 76.822.001 106.064zm21.213-84.852 10.607-10.607 23.03 23.03c-7.97 16.725-5.039 37.388 8.789 51.216l21.214 21.212c13.827 13.829 34.491 16.758 51.215 8.789l23.031 23.031-10.606 10.607c-17.547 17.546-46.094 17.546-63.641 0l-63.64-63.64c-17.544-17.544-17.544-46.093.001-63.638z" fill="#ffffff"/><path d="m30.5 15v482c0 8.284 6.716 15 15 15h331c24.813 0 45-20.187 45-45v-45h15c24.813 0 45-20.187 45-45 0-6.958 0-233.088 0-240 0-24.813-20.187-45-45-45h-15v-47c0-24.813-20.187-45-45-45h-331c-8.284 0-15 6.716-15 15zm421 272c0 8.271-6.729 15-15 15h-15v-60h15c5.259 0 10.305-.915 15-2.58zm-15 105h-15v-60h15c5.259 0 10.305-.915 15-2.58v47.58c0 8.271-6.729 15-15 15zm0-270c8.271 0 15 6.729 15 15v60c0 8.271-6.729 15-15 15h-15v-90zm-45-77v422c0 8.271-6.729 15-15 15h-256v-452h256c8.271 0 15 6.729 15 15zm-331-15h30v452h-30z" fill="#ffffff"/></g></defs><g fi:class="KUsePattern" opacity="0.26"><pattern id="pattern_L1_117" width="350" height="350" patternUnits="userSpaceOnUse"><use xlink:href="#L1_117" x="-350" y="-350"/><use xlink:href="#L1_117" x="0" y="-350"/><use xlink:href="#L1_117" x="350" y="-350"/><use xlink:href="#L1_117" x="-350" y="0"/><use xlink:href="#L1_117" x="0" y="0"/><use xlink:href="#L1_117" x="350" y="0"/><use xlink:href="#L1_117" x="-350" y="350"/><use xlink:href="#L1_117" x="0" y="350"/><use xlink:href="#L1_117" x="350" y="350"/></pattern><rect x="0" y="0" width="100%" height="100%" fill="url(#pattern_L1_117)"/></g><g fi:class="KUsePattern" opacity="0.31"><pattern id="pattern_L1_118" width="350" height="350" patternUnits="userSpaceOnUse"><use xlink:href="#L1_118" x="-350" y="-350"/><use xlink:href="#L1_118" x="0" y="-350"/><use xlink:href="#L1_118" x="350" y="-350"/><use xlink:href="#L1_118" x="-350" y="0"/><use xlink:href="#L1_118" x="0" y="0"/><use xlink:href="#L1_118" x="350" y="0"/><use xlink:href="#L1_118" x="-350" y="350"/><use xlink:href="#L1_118" x="0" y="350"/><use xlink:href="#L1_118" x="350" y="350"/></pattern><rect x="0" y="0" width="100%" height="100%" fill="url(#pattern_L1_118)"/></g><g fi:class="KUsePattern" opacity="0.35"><pattern id="pattern_L1_120" width="350" height="350" patternUnits="userSpaceOnUse"><use xlink:href="#L1_120" x="-350" y="-350"/><use xlink:href="#L1_120" x="0" y="-350"/><use xlink:href="#L1_120" x="350" y="-350"/><use xlink:href="#L1_120" x="-350" y="0"/><use xlink:href="#L1_120" x="0" y="0"/><use xlink:href="#L1_120" x="350" y="0"/><use xlink:href="#L1_120" x="-350" y="350"/><use xlink:href="#L1_120" x="0" y="350"/><use xlink:href="#L1_120" x="350" y="350"/></pattern><rect x="0" y="0" width="100%" height="100%" fill="url(#pattern_L1_120)"/></g><g fi:class="KUsePattern" opacity="0.3"><pattern id="pattern_L1_119" width="350" height="350" patternUnits="userSpaceOnUse"><use xlink:href="#L1_119" x="-350" y="-350"/><use xlink:href="#L1_119" x="0" y="-350"/><use xlink:href="#L1_119" x="350" y="-350"/><use xlink:href="#L1_119" x="-350" y="0"/><use xlink:href="#L1_119" x="0" y="0"/><use xlink:href="#L1_119" x="350" y="0"/><use xlink:href="#L1_119" x="-350" y="350"/><use xlink:href="#L1_119" x="0" y="350"/><use xlink:href="#L1_119" x="350" y="350"/></pattern><rect x="0" y="0" width="100%" height="100%" fill="url(#pattern_L1_119)"/></g><g fi:class="KUsePattern" opacity="0.29"><pattern id="pattern_L1_121" width="350" height="350" patternUnits="userSpaceOnUse"><use xlink:href="#L1_121" x="-350" y="-350"/><use xlink:href="#L1_121" x="0" y="-350"/><use xlink:href="#L1_121" x="350" y="-350"/><use xlink:href="#L1_121" x="-350" y="0"/><use xlink:href="#L1_121" x="0" y="0"/><use xlink:href="#L1_121" x="350" y="0"/><use xlink:href="#L1_121" x="-350" y="350"/><use xlink:href="#L1_121" x="0" y="350"/><use xlink:href="#L1_121" x="350" y="350"/></pattern><rect x="0" y="0" width="100%" height="100%" fill="url(#pattern_L1_121)"/></g></svg>